PathFileType  4	(X/Y/Z) C:\Users\antoi\Documents\MyRepositories\mobilecap\ResultsAnalysis
DataRate	CameraRate	NumFrames	NumMarkers	Units	OrigDataRate	OrigDataStartFrame	OrigNumFrames
100.0	100.0	4	51	mm	100.0	35	138
Frame#	Time	r_knee			r_shank_antsup			r_ankle			r_calc			r_5meta			r_toe			L_knee			L_shank_antsup			L_ankle			L_calc			L_5meta			L_toe			r_sh2			r_sh3			r_sh4			L_sh2			L_sh3			r_thigh1			r_thigh2			r_thigh3			r_thigh4			r_thigh5			L_thigh1			L_thigh2			L_thigh3			L_thigh4			r.ASIS			r.PSIS			L.ASIS			L.PSIS			C7			R_Shoulder			L_Shoulder			R_Sternum			L_Sternum			R_humerus			R_elbow_med			R_elbow_lat			R_forearm			R_wrist_radius			R_wrist_ulna			L_humerus			L_elbow_med			L_elbow_lat			L_forearm			L_wrist_radius			L_wrist_ulna			R_HJC			L_HJC			R_HJC_reg			L_HJC_reg			
		X1	Y1	Z1	X2	Y2	Z2	X3	Y3	Z3	X4	Y4	Z4	X5	Y5	Z5	X6	Y6	Z6	X7	Y7	Z7	X8	Y8	Z8	X9	Y9	Z9	X10	Y10	Z10	X11	Y11	Z11	X12	Y12	Z12	X13	Y13	Z13	X14	Y14	Z14	X15	Y15	Z15	X16	Y16	Z16	X17	Y17	Z17	X18	Y18	Z18	X19	Y19	Z19	X20	Y20	Z20	X21	Y21	Z21	X22	Y22	Z22	X23	Y23	Z23	X24	Y24	Z24	X25	Y25	Z25	X26	Y26	Z26	X27	Y27	Z27	X28	Y28	Z28	X29	Y29	Z29	X30	Y30	Z30	X31	Y31	Z31	X32	Y32	Z32	X33	Y33	Z33	X34	Y34	Z34	X35	Y35	Z35	X36	Y36	Z36	X37	Y37	Z37	X38	Y38	Z38	X39	Y39	Z39	X40	Y40	Z40	X41	Y41	Z41	X42	Y42	Z42	X43	Y43	Z43	X44	Y44	Z44	X45	Y45	Z45	X46	Y46	Z46	X47	Y47	Z47	X48	Y48	Z48	X49	Y49	Z49	X50	Y50	Z50	X51	Y51	Z51	

35	0.34000000	186.12567	465.89851	-126.62910	212.18097	348.59685	-157.12871	117.31702	89.21905	-202.77186	69.92712	55.02310	-259.79815	227.72026	37.44887	-172.45433	267.55079	55.75494	-213.75038	374.59076	495.47106	-410.70674	371.96933	381.62592	-372.00658	145.93098	190.90726	-383.73266	92.30875	180.98572	-328.12214	213.74871	83.68958	-416.34205	263.71989	78.09084	-371.40410	196.42058	241.44884	-183.29329	159.96786	342.98422	-102.82668	125.86457	240.01905	-136.31591	334.23969	430.36143	-433.55766	260.51068	334.83194	-443.82102	290.38815	768.33918	-118.83970	292.63863	656.22825	-125.59937	247.61202	629.74240	-80.34641	189.95500	759.57125	-64.10756	193.41633	646.26332	-72.68645	304.99129	779.66768	-429.74976	383.85178	668.09479	-428.58199	211.09091	722.08174	-452.23355	291.42529	607.19559	-442.09931	297.80972	934.54685	-145.09107	110.54682	979.59689	-204.72376	288.76610	929.73576	-385.83798	102.69243	972.23742	-321.79667	126.81058	1425.78317	-246.24691	189.60335	1390.94881	-99.53927	179.43260	1405.20653	-409.71970	256.26292	1377.13165	-235.96101	255.19811	1376.76343	-279.94763	223.04364	1264.20748	-39.48306	166.91337	1059.74609	-82.18329	198.16063	1069.94354	-14.29851	271.87971	966.69027	-0.50268	323.26172	875.83412	-0.52787	291.94305	861.94391	12.58385	191.80459	1255.16821	-476.30407	129.89706	1066.22119	-411.71879	134.73981	1075.08596	-484.76626	181.85852	989.49799	-516.50265	220.35577	864.06073	-515.18016	191.89312	857.30358	-528.33920	205.72115	863.93189	-163.61065	203.20524	854.92706	-352.75813	223.82999	872.00730	-169.84228	213.20278	862.05233	-328.21006	
36	0.35000000	190.50156	465.49541	-126.64511	215.22280	347.85272	-157.21607	117.59256	89.72472	-202.89212	70.03605	55.27567	-259.92342	227.78765	37.40637	-172.42485	267.72279	55.60236	-213.71616	391.91163	498.98718	-409.41432	395.16623	384.97218	-371.45441	181.34280	180.21541	-382.83588	128.56021	166.53541	-326.95334	255.91153	78.64311	-416.79402	306.73257	76.13168	-372.13820	198.42697	240.88174	-183.43685	162.94771	342.81272	-102.90343	127.82830	240.20171	-136.45892	354.30715	431.52323	-432.59595	286.62519	331.62093	-442.98395	298.95549	766.88999	-118.31926	299.52575	654.69176	-125.06748	254.08328	628.73876	-80.01974	197.81024	759.25266	-63.82754	200.06455	645.84883	-72.49482	318.06201	782.14468	-429.54440	398.66969	671.79110	-427.50531	224.89527	722.64903	-452.61308	307.29883	609.46287	-441.51573	307.62436	933.47993	-144.03903	120.89908	979.36368	-204.86739	300.08952	929.74224	-384.71881	113.64695	972.16483	-322.02907	138.74054	1425.51718	-246.10180	201.13960	1390.91364	-99.24827	190.89394	1404.79226	-409.49008	267.98506	1376.90814	-235.68854	266.90463	1376.49844	-279.71540	236.16339	1264.81090	-39.10521	183.79246	1059.17166	-80.62856	215.55494	1070.27386	-13.05412	292.27807	969.16310	-0.04426	346.45027	879.62610	-0.55875	315.69476	865.07040	12.80867	200.97195	1254.58271	-476.24369	137.49603	1066.56440	-410.56498	141.06629	1075.42109	-483.73837	185.87792	988.95290	-516.38044	221.87474	862.68849	-515.84694	193.27297	856.48329	-528.48509	215.45514	863.21651	-163.44949	214.21887	854.89725	-352.64115	233.63538	871.70019	-169.25288	223.83436	861.97256	-327.59510	
37	0.36000000	194.84572	465.13171	-126.69368	218.28302	347.13836	-157.26132	117.98296	90.18147	-203.09975	70.13619	55.55980	-260.09693	227.85328	37.38611	-172.40770	267.87060	55.44676	-213.70118	408.32233	501.94077	-408.15365	417.62892	388.15616	-370.98158	217.46926	169.54059	-382.05957	165.71113	152.23363	-326.01657	298.58588	73.97432	-416.95903	349.98399	74.83332	-372.48766	200.43455	240.34774	-183.52331	165.84643	342.67390	-103.02129	129.71289	240.44997	-136.66002	373.62519	432.21104	-431.70887	312.49523	328.21201	-442.18957	307.40381	765.36033	-117.77769	306.45247	653.14515	-124.57860	260.50516	627.71864	-79.81219	205.67679	758.85195	-63.62669	206.69783	645.41142	-72.41052	330.93640	784.17501	-429.40607	412.85709	674.77108	-426.35974	238.14779	723.15101	-452.73110	322.35395	611.34565	-440.73136	317.46006	932.36405	-142.97174	131.27526	978.96473	-205.06821	311.46461	929.61141	-383.69460	124.67645	971.91527	-322.27926	150.66535	1425.17702	-245.99252	212.66451	1390.76031	-98.94575	202.39583	1404.27103	-409.28654	279.71371	1376.57161	-235.42758	278.63256	1376.12465	-279.49795	249.21199	1265.28930	-38.73713	200.60711	1058.60376	-79.25282	232.76077	1070.58237	-11.94127	312.38500	971.62221	0.31510	369.24450	883.58629	-0.78314	339.06490	868.26960	12.89287	210.35739	1253.93280	-476.17708	145.27266	1066.81998	-409.50553	147.59523	1075.77486	-482.81076	190.10921	988.45085	-516.27641	223.58930	861.37715	-516.47323	194.85665	855.74185	-528.67158	225.26552	862.39940	-163.31164	225.32581	854.71514	-352.53383	243.48017	871.23251	-168.68451	234.56507	861.70782	-327.08225	
38	0.37000000	199.15756	464.80809	-126.75658	221.33000	346.43890	-157.26683	118.45707	90.59298	-203.37445	70.23802	55.88375	-260.30665	227.91343	37.38259	-172.39483	267.99766	55.28963	-213.69487	423.86756	504.23067	-406.94316	439.33094	391.14958	-370.49470	254.19048	159.15856	-381.42059	203.63478	138.35416	-325.32885	341.63047	69.90457	-416.81610	393.22140	74.33713	-372.42368	202.44255	239.85908	-183.55487	168.68040	342.57079	-103.16423	131.53626	240.76901	-136.89627	392.27296	432.37159	-430.89231	338.14892	324.63824	-441.44247	315.74691	763.77644	-117.21545	313.36437	651.60472	-124.12116	266.91862	626.69141	-79.70556	213.56424	758.39027	-63.48470	213.32288	644.96260	-72.42686	343.55268	785.67476	-429.35482	426.38962	676.96187	-425.17864	250.86535	723.53837	-452.59868	336.56235	612.75003	-439.83260	327.32635	931.20511	-141.90959	141.69718	978.42390	-205.30505	322.90531	929.38424	-382.75981	135.78614	971.52942	-322.53191	162.57005	1424.78197	-245.86401	224.21760	1390.48632	-98.65566	213.94488	1403.64798	-409.10811	291.46284	1376.11529	-235.19377	290.39065	1375.62998	-279.30435	262.22230	1265.65547	-38.38483	217.33043	1058.04957	-78.03588	249.76442	1070.88609	-10.95489	332.17662	974.06028	0.57026	391.60035	887.76559	-1.25327	362.00610	871.52597	12.83420	219.97927	1253.21807	-476.10043	153.22786	1066.99787	-408.54875	154.37780	1076.12722	-481.98587	194.62251	987.99399	-516.18678	225.58341	860.16816	-517.09282	196.69621	855.09530	-528.88075	235.16634	861.49247	-163.20472	236.52810	854.42129	-352.44538	253.38525	870.62525	-168.15434	245.39618	861.30421	-326.67069	
